HIERARCHY
ROOT Hips
{
	OFFSET 0.000000 97.167313 0.000000
	CHANNELS 6 Xposition Yposition Zposition Xrotation Yrotation Zrotation
	JOINT Spine
	{
		OFFSET 0.000000 13.784798 0.064400
		CHANNELS 3 Xrotation Yrotation Zrotation
		JOINT Spine1
		{
			OFFSET 0.000000 12.037903 0.404700
			CHANNELS 3 Xrotation Yrotation Zrotation
			JOINT Spine2
			{
				OFFSET 0.000000 17.795601 0.420200
				CHANNELS 3 Xrotation Yrotation Zrotation
				JOINT Neck
				{
					OFFSET 0.000000 39.131302 11.954600
					CHANNELS 3 Xrotation Yrotation Zrotation
					JOINT Head
					{
						OFFSET 0.000000 14.456192 15.627699
						CHANNELS 3 Xrotation Yrotation Zrotation
						JOINT HeadTop_End
						{
							OFFSET 0.000000 15.703506 7.603401
							CHANNELS 3 Xrotation Yrotation Zrotation
							End Site
							{
								OFFSET 0.000000 17.447403 0.000000
							}
						}
					}
				}
				JOINT LeftShoulder
				{
					OFFSET 17.399500 24.608795 1.168800
					CHANNELS 3 Xrotation Yrotation Zrotation
					JOINT LeftArm
					{
						OFFSET 18.980635 5.765305 1.818600
						CHANNELS 3 Xrotation Yrotation Zrotation
						JOINT LeftForeArm
						{
							OFFSET 49.290169 0.000000 0.000000
							CHANNELS 3 Xrotation Yrotation Zrotation
							JOINT LeftHand
							{
								OFFSET 31.562012 0.000000 0.000000
								CHANNELS 3 Xrotation Yrotation Zrotation
								JOINT LeftHandThumb1
								{
									OFFSET 6.133995 -4.388519 7.076070
									CHANNELS 3 Xrotation Yrotation Zrotation
									JOINT LeftHandThumb2
									{
										OFFSET 6.037666 -3.485840 3.485847
										CHANNELS 3 Xrotation Yrotation Zrotation
										JOINT LeftHandThumb3
										{
											OFFSET 6.496506 -3.750763 3.750761
											CHANNELS 3 Xrotation Yrotation Zrotation
											JOINT LeftHandThumb4
											{
												OFFSET 5.616882 -3.242905 3.242910
												CHANNELS 3 Xrotation Yrotation Zrotation
												End Site
												{
													OFFSET -1.254608 7.132141 0.375429
												}
											}
										}
									}
								}
								JOINT LeftHandPinky1
								{
									OFFSET 18.920792 -0.453171 -11.426712
									CHANNELS 3 Xrotation Yrotation Zrotation
									JOINT LeftHandPinky2
									{
										OFFSET 4.919586 0.000000 0.000000
										CHANNELS 3 Xrotation Yrotation Zrotation
										JOINT LeftHandPinky3
										{
											OFFSET 5.233047 0.000000 0.000000
											CHANNELS 3 Xrotation Yrotation Zrotation
											JOINT LeftHandPinky4
											{
												OFFSET 5.571716 0.000000 0.000000
												CHANNELS 3 Xrotation Yrotation Zrotation
												End Site
												{
													OFFSET -3.459808 4.342407 -0.466164
												}
											}
										}
									}
								}
								JOINT LeftHandRing1
								{
									OFFSET 22.726120 -0.094986 -6.500475
									CHANNELS 3 Xrotation Yrotation Zrotation
									JOINT LeftHandRing2
									{
										OFFSET 6.408615 0.000000 0.000000
										CHANNELS 3 Xrotation Yrotation Zrotation
										JOINT LeftHandRing3
										{
											OFFSET 6.150223 0.000000 0.000000
											CHANNELS 3 Xrotation Yrotation Zrotation
											JOINT LeftHandRing4
											{
												OFFSET 6.145386 0.000000 0.000000
												CHANNELS 3 Xrotation Yrotation Zrotation
												End Site
												{
													OFFSET -3.671402 4.923981 -0.202372
												}
											}
										}
									}
								}
								JOINT LeftHandMiddle1
								{
									OFFSET 23.373947 0.000000 0.000001
									CHANNELS 3 Xrotation Yrotation Zrotation
									JOINT LeftHandMiddle2
									{
										OFFSET 6.996567 0.000000 0.000000
										CHANNELS 3 Xrotation Yrotation Zrotation
										JOINT LeftHandMiddle3
										{
											OFFSET 7.015945 0.000000 0.000000
											CHANNELS 3 Xrotation Yrotation Zrotation
											JOINT LeftHandMiddle4
											{
												OFFSET 7.721573 0.000000 0.000000
												CHANNELS 3 Xrotation Yrotation Zrotation
												End Site
												{
													OFFSET -4.651108 6.158463 0.251582
												}
											}
										}
									}
								}
								JOINT LeftHandIndex1
								{
									OFFSET 21.310577 -0.490082 6.209344
									CHANNELS 3 Xrotation Yrotation Zrotation
									JOINT LeftHandIndex2
									{
										OFFSET 7.536453 0.000000 0.000000
										CHANNELS 3 Xrotation Yrotation Zrotation
										JOINT LeftHandIndex3
										{
											OFFSET 7.512344 0.000000 0.000000
											CHANNELS 3 Xrotation Yrotation Zrotation
											JOINT LeftHandIndex4
											{
												OFFSET 10.212402 0.000000 0.000001
												CHANNELS 3 Xrotation Yrotation Zrotation
												End Site
												{
													OFFSET -5.180801 8.690506 1.388433
												}
											}
										}
									}
								}
							}
						}
					}
				}
				JOINT RightShoulder
				{
					OFFSET -17.399500 24.608795 1.168800
					CHANNELS 3 Xrotation Yrotation Zrotation
					JOINT RightArm
					{
						OFFSET -18.980635 5.765305 1.818600
						CHANNELS 3 Xrotation Yrotation Zrotation
						JOINT RightForeArm
						{
							OFFSET -49.290169 0.000000 0.000000
							CHANNELS 3 Xrotation Yrotation Zrotation
							JOINT RightHand
							{
								OFFSET -31.562012 0.000000 0.000000
								CHANNELS 3 Xrotation Yrotation Zrotation
								JOINT RightHandThumb1
								{
									OFFSET -6.133995 -4.388519 7.076070
									CHANNELS 3 Xrotation Yrotation Zrotation
									JOINT RightHandThumb2
									{
										OFFSET -6.037666 -3.485840 3.485847
										CHANNELS 3 Xrotation Yrotation Zrotation
										JOINT RightHandThumb3
										{
											OFFSET -6.496506 -3.750763 3.750761
											CHANNELS 3 Xrotation Yrotation Zrotation
											JOINT RightHandThumb4
											{
												OFFSET -5.616882 -3.242905 3.242910
												CHANNELS 3 Xrotation Yrotation Zrotation
												End Site
												{
													OFFSET 1.254608 7.132141 0.375429
												}
											}
										}
									}
								}
								JOINT RightHandIndex1
								{
									OFFSET -21.310577 -0.490082 6.209344
									CHANNELS 3 Xrotation Yrotation Zrotation
									JOINT RightHandIndex2
									{
										OFFSET -7.536453 0.000000 0.000000
										CHANNELS 3 Xrotation Yrotation Zrotation
										JOINT RightHandIndex3
										{
											OFFSET -7.512344 0.000000 0.000000
											CHANNELS 3 Xrotation Yrotation Zrotation
											JOINT RightHandIndex4
											{
												OFFSET -10.212402 0.000000 0.000001
												CHANNELS 3 Xrotation Yrotation Zrotation
												End Site
												{
													OFFSET 5.180801 8.690506 1.388433
												}
											}
										}
									}
								}
								JOINT RightHandMiddle1
								{
									OFFSET -23.373947 0.000000 0.000001
									CHANNELS 3 Xrotation Yrotation Zrotation
									JOINT RightHandMiddle2
									{
										OFFSET -6.996567 0.000000 0.000000
										CHANNELS 3 Xrotation Yrotation Zrotation
										JOINT RightHandMiddle3
										{
											OFFSET -7.015945 0.000000 0.000000
											CHANNELS 3 Xrotation Yrotation Zrotation
											JOINT RightHandMiddle4
											{
												OFFSET -7.721573 0.000000 0.000000
												CHANNELS 3 Xrotation Yrotation Zrotation
												End Site
												{
													OFFSET 4.651108 6.158463 0.251582
												}
											}
										}
									}
								}
								JOINT RightHandRing1
								{
									OFFSET -22.726120 -0.094986 -6.500475
									CHANNELS 3 Xrotation Yrotation Zrotation
									JOINT RightHandRing2
									{
										OFFSET -6.408615 0.000000 0.000000
										CHANNELS 3 Xrotation Yrotation Zrotation
										JOINT RightHandRing3
										{
											OFFSET -6.150223 0.000000 0.000000
											CHANNELS 3 Xrotation Yrotation Zrotation
											JOINT RightHandRing4
											{
												OFFSET -6.145386 0.000000 0.000000
												CHANNELS 3 Xrotation Yrotation Zrotation
												End Site
												{
													OFFSET 3.671402 4.923981 -0.202372
												}
											}
										}
									}
								}
								JOINT RightHandPinky1
								{
									OFFSET -18.920792 -0.453171 -11.426712
									CHANNELS 3 Xrotation Yrotation Zrotation
									JOINT RightHandPinky2
									{
										OFFSET -4.919586 0.000000 0.000000
										CHANNELS 3 Xrotation Yrotation Zrotation
										JOINT RightHandPinky3
										{
											OFFSET -5.233047 0.000000 0.000000
											CHANNELS 3 Xrotation Yrotation Zrotation
											JOINT RightHandPinky4
											{
												OFFSET -5.571716 0.000000 0.000000
												CHANNELS 3 Xrotation Yrotation Zrotation
												End Site
												{
													OFFSET 3.459808 4.342407 -0.466164
												}
											}
										}
									}
								}
							}
						}
					}
				}
			}
		}
	}
	JOINT LeftUpLeg
	{
		OFFSET 19.899099 -7.885101 -3.429500
		CHANNELS 3 Xrotation Yrotation Zrotation
		JOINT LeftLeg
		{
			OFFSET 1.745560 -36.997807 10.304700
			CHANNELS 3 Xrotation Yrotation Zrotation
			JOINT LeftFoot
			{
				OFFSET -1.745558 -29.803308 -13.615400
				CHANNELS 3 Xrotation Yrotation Zrotation
				JOINT LeftToeBase
				{
					OFFSET 1.181900 -18.539904 15.226099
					CHANNELS 3 Xrotation Yrotation Zrotation
					JOINT LeftToe_End
					{
						OFFSET -0.863701 1.402801 16.534700
						CHANNELS 3 Xrotation Yrotation Zrotation
						End Site
						{
							OFFSET 0.000000 16.616566 0.000000
						}
					}
				}
			}
		}
	}
	JOINT RightUpLeg
	{
		OFFSET -19.899099 -7.885101 -3.429500
		CHANNELS 3 Xrotation Yrotation Zrotation
		JOINT RightLeg
		{
			OFFSET -1.745560 -36.997807 10.304700
			CHANNELS 3 Xrotation Yrotation Zrotation
			JOINT RightFoot
			{
				OFFSET 1.745558 -29.803308 -13.615400
				CHANNELS 3 Xrotation Yrotation Zrotation
				JOINT RightToeBase
				{
					OFFSET -1.181900 -18.539904 15.226099
					CHANNELS 3 Xrotation Yrotation Zrotation
					JOINT RightToe_End
					{
						OFFSET 0.863701 1.402801 16.534700
						CHANNELS 3 Xrotation Yrotation Zrotation
						End Site
						{
							OFFSET 0.000000 16.616566 0.000000
						}
					}
				}
			}
		}
	}
}
MOTION
Frames: 4
Frame Time: 0.033333
-6.359999 39.135002 11.381691 23.120950 -26.030327 14.308492 7.528621 -1.287754 -1.907813 1.066959 -5.158328 -3.019540 1.089480 -5.158265 -3.019063 -2.087959 15.989287 10.789270 -15.475563 26.141900 -6.161126 0.000001 0.000000 -0.000000 1.711879 -21.506169 2.052597 -15.077776 -14.165533 -7.607678 -0.074047 -43.146800 -0.133803 -8.770305 -3.821471 17.924730 2.088564 -8.345713 8.780173 1.270819 19.900299 -2.439496 0.808180 1.237821 2.631752 0.000002 0.000001 -0.000002 -5.673373 7.472749 -14.344277 0.224397 0.276518 -46.588396 0.261186 0.249409 -46.286891 -0.000000 0.000002 0.000001 5.872268 2.752280 -17.088640 0.047115 0.322465 -30.125492 0.408758 0.818951 -42.140771 -0.000000 -0.000001 0.000003 8.282180 -0.910977 -1.396512 0.231435 0.661093 -29.901943 0.444133 0.213421 -44.356912 0.000000 -0.000000 0.000006 13.583011 -0.627070 9.837228 -0.167544 0.303412 -31.105651 -0.143376 0.303651 -32.256279 0.000000 -0.000000 -0.000001 -0.932218 3.422478 4.725906 -56.640549 -36.483326 21.785653 32.155933 120.314643 -28.385597 -1.835056 15.159222 -9.419034 3.430248 10.444950 -11.189543 0.262927 -17.333842 3.412943 3.342395 -13.253710 -8.262792 -0.000001 -0.000001 -0.000000 19.526287 10.885564 -12.443507 -0.118632 -0.322686 18.035586 -0.089869 -0.286677 23.256596 0.000000 -0.000004 -0.000004 4.087763 2.981638 -4.288867 0.349036 -0.461127 26.890386 0.467467 0.154058 39.044852 -0.000001 0.000000 -0.000004 -7.113487 -10.504897 6.680155 0.111819 -0.089244 26.155820 0.451283 -0.473545 33.265084 -0.000002 0.000002 -0.000005 -19.346951 -20.117511 6.525516 0.223762 -0.085820 36.844537 0.260792 -0.047480 36.471728 -0.000002 -0.000004 0.000005 -62.678228 -48.464113 74.877424 61.935213 -27.038894 -60.680582 0.840393 -3.839047 -18.497616 -0.326858 0.004582 1.243885 -0.000000 0.000002 0.000000 -50.128374 17.937456 -61.820124 111.010750 49.784177 23.171091 -34.747570 20.131496 -17.673323 -31.688519 -1.770692 3.789648 0.000000 -0.000001 0.000000 
-6.270420 39.323395 11.375736 23.205006 -26.019913 14.303253 7.266781 -1.344396 -1.734637 1.071877 -5.190049 -3.104592 1.153257 -5.182456 -3.108204 -1.966075 16.172945 10.689912 -15.576530 26.060889 -6.055436 -0.000000 -0.000000 -0.000001 1.618358 -21.375337 2.053263 -15.071137 -14.486044 -7.959219 -0.194628 -42.431198 -0.214937 -8.640109 -4.634901 17.930083 2.088560 -8.345713 8.780174 1.279520 19.929911 -2.427411 0.822949 1.301523 2.663467 0.000001 0.000001 -0.000001 -5.671689 7.472335 -14.462671 0.224181 0.277892 -46.747628 0.261612 0.250109 -46.418437 0.000001 -0.000001 -0.000002 5.871472 2.753207 -17.183303 0.047586 0.323170 -30.257062 0.409280 0.820317 -42.252264 -0.000001 0.000001 0.000003 8.280563 -0.910124 -1.474797 0.231878 0.661882 -30.013426 0.444070 0.214933 -44.453777 0.000000 0.000001 0.000006 13.583834 -0.627437 9.770893 -0.167263 0.302084 -31.202449 -0.143329 0.303714 -32.342291 -0.000002 0.000003 0.000001 -1.016906 3.379100 4.695003 -55.810121 -36.545682 22.668184 31.308672 121.127285 -27.400060 -0.551555 14.123650 -7.993595 3.148340 10.611081 -10.981694 0.427881 -17.764723 3.238653 3.419803 -13.613422 -8.386645 -0.000001 -0.000005 0.000002 19.423105 10.793146 -12.381732 -0.116849 -0.319282 18.457104 -0.088421 -0.282887 23.504414 -0.000001 0.000000 0.000004 4.116637 2.803753 -4.391484 0.349119 -0.464831 27.207411 0.466013 0.149685 39.321778 0.000000 0.000000 -0.000008 -6.862466 -10.613236 6.437546 0.113206 -0.095194 26.742081 0.450134 -0.476694 33.743078 0.000003 -0.000001 -0.000005 -18.642773 -20.296787 6.563028 0.225170 -0.090217 37.750070 0.263515 -0.050190 37.085441 -0.000000 -0.000001 0.000004 -62.955247 -48.440142 74.350728 62.167494 -26.865410 -60.363054 0.725401 -3.851552 -18.410024 -0.326858 0.004581 1.243885 -0.000000 -0.000000 0.000000 -51.365417 17.148551 -59.396172 112.368913 49.186907 21.273365 -35.882143 18.717666 -18.136898 -31.627235 -1.768164 3.792396 0.000000 0.000004 0.000000 
-6.210116 39.522652 11.330898 23.347340 -26.055731 14.313384 7.000691 -1.368644 -1.581074 1.100772 -5.224225 -3.192315 1.219693 -5.210009 -3.201719 -1.813248 16.323881 10.556673 -15.756014 26.047305 -5.900386 -0.000001 -0.000000 -0.000001 1.542490 -21.242594 2.125107 -15.205295 -14.715883 -8.397108 -0.050320 -42.001620 -0.117622 -8.541434 -5.225704 18.023930 2.088563 -8.345713 8.780172 1.307584 20.012495 -2.393962 0.867256 1.483857 2.749661 0.000002 0.000001 0.000000 -5.667209 7.471268 -14.795522 0.225434 0.279923 -47.198328 0.262805 0.251193 -46.792690 0.000001 0.000001 -0.000004 5.869284 2.755788 -17.451454 0.048828 0.325062 -30.631284 0.410440 0.821563 -42.570916 -0.000002 0.000001 -0.000002 8.276127 -0.907044 -1.697575 0.232401 0.663475 -30.332109 0.444776 0.216048 -44.731329 0.000002 -0.000002 0.000004 13.584661 -0.628720 9.581216 -0.166689 0.301499 -31.480017 -0.143131 0.304026 -32.589452 -0.000000 0.000003 0.000002 -1.104112 3.416191 4.571144 -55.537528 -36.634242 23.033952 30.691435 121.753900 -26.676637 0.334500 12.987987 -6.273866 2.421439 11.031862 -10.437171 0.853831 -18.895093 2.781931 3.622518 -14.569237 -8.713214 -0.000002 -0.000002 0.000003 19.144055 10.542427 -12.217006 -0.116393 -0.311491 19.607880 -0.086761 -0.279272 24.185669 -0.000003 -0.000003 -0.000001 4.191627 2.327834 -4.666277 0.350299 -0.471305 28.062654 0.464712 0.143325 40.075800 -0.000002 0.000001 -0.000008 -6.204820 -10.909112 5.802203 0.114893 -0.106107 28.305354 0.448858 -0.480782 35.033755 0.000003 -0.000004 -0.000000 -16.821065 -20.763565 6.681018 0.226628 -0.096115 40.123168 0.268438 -0.055752 38.720329 -0.000002 -0.000000 0.000002 -63.006473 -48.382345 74.117443 62.436330 -26.560294 -60.030396 0.640763 -4.049770 -18.419285 -0.326858 0.004580 1.243884 -0.000000 -0.000003 0.000000 -50.994623 17.313616 -58.688284 112.056780 48.862972 21.327110 -36.685626 18.387865 -17.596611 -31.463482 -1.756970 3.800029 0.000000 -0.000002 -0.000000 
-6.129732 39.761139 11.273527 23.525926 -26.119871 14.327724 6.732951 -1.345114 -1.439372 1.149254 -5.254249 -3.280008 1.287982 -5.240466 -3.296815 -1.624130 16.352687 10.379280 -16.008531 26.152118 -5.671603 0.000000 -0.000000 -0.000000 1.481779 -21.109407 2.258258 -15.469222 -14.903381 -8.917146 0.292422 -41.772136 0.110701 -8.465896 -5.660547 18.172410 2.088561 -8.345717 8.780171 1.351631 20.141234 -2.340796 0.936490 1.770666 2.885626 0.000001 0.000001 -0.000001 -5.661241 7.469913 -15.311597 0.227967 0.282577 -47.903272 0.264737 0.253412 -47.381859 0.000006 -0.000004 -0.000005 5.865742 2.759870 -17.870765 0.050845 0.328190 -31.220443 0.412017 0.823347 -43.075097 0.000000 0.000000 0.000005 8.269078 -0.902198 -2.048268 0.233272 0.666035 -30.836252 0.446259 0.217202 -45.172204 0.000002 -0.000003 0.000004 13.586856 -0.630667 9.281219 -0.165902 0.301607 -31.920947 -0.143035 0.304138 -32.983209 0.000000 -0.000000 -0.000001 -1.195567 3.348706 4.467161 -55.407304 -36.748422 23.295209 30.246516 122.225252 -26.152057 0.956172 12.164621 -4.784443 1.421715 11.593477 -9.668514 1.444042 -20.494707 2.149681 3.904058 -15.944733 -9.176693 0.000000 0.000004 0.000001 18.733109 10.170582 -11.979660 -0.116878 -0.300058 21.325748 -0.086072 -0.272250 25.212450 -0.000002 -0.000003 0.000001 4.294277 1.636561 -5.065078 0.353266 -0.481405 29.318771 0.462222 0.131432 41.197297 -0.000003 0.000001 -0.000004 -5.281163 -11.355779 4.910212 0.118983 -0.123413 30.564383 0.448555 -0.487401 36.931752 0.000003 -0.000000 -0.000002 -14.301626 -21.415240 6.895116 0.228995 -0.103741 43.467655 0.276515 -0.064374 41.079240 0.000000 -0.000002 -0.000001 -63.035618 -48.312418 73.887818 62.771406 -26.184141 -59.639429 0.542945 -4.307214 -18.434928 -0.326858 0.004581 1.243885 0.000000 -0.000002 0.000000 -50.601153 17.486444 -57.800203 111.723822 48.444216 21.316144 -37.697873 17.993191 -16.944991 -31.205509 -1.739514 3.811970 -0.000000 0.000001 -0.000000 
